<svg xmlns="http://www.w3.org/2000/svg" xmlns:xlink="http://www.w3.org/1999/xlink" width="64" zoomAndPan="magnify" viewBox="0 0 48 48" height="64" preserveAspectRatio="xMidYMid meet" version="1.2"><defs><clipPath id="e43b790372"><path d="M 12.675781 10.476562 L 35.453125 10.476562 L 35.453125 36.191406 L 12.675781 36.191406 Z M 12.675781 10.476562 "/></clipPath></defs><g id="8de92e211a"><g clip-rule="nonzero" clip-path="url(#e43b790372)"><path style=" stroke:none;fill-rule:nonzero;fill:#8f1eae;fill-opacity:1;" d="M 12.675781 36.171875 L 23.863281 10.488281 L 35.011719 36.171875 L 23.714844 36.171875 L 23.714844 34.332031 L 32.214844 34.332031 L 23.863281 15.089844 L 14.699219 36.171875 Z M 12.675781 36.171875 "/></g><g style="fill:#ffffff;fill-opacity:1;"><g transform="translate(23.999999, 37.425951)"><path style="stroke:none" d="M 0.21875 0.015625 C 0.164062 0.015625 0.125 0 0.09375 -0.03125 C 0.0625 -0.0625 0.046875 -0.101562 0.046875 -0.15625 C 0.046875 -0.1875 0.0507812 -0.210938 0.0625 -0.234375 C 0.0820312 -0.253906 0.101562 -0.269531 0.125 -0.28125 C 0.15625 -0.300781 0.195312 -0.3125 0.25 -0.3125 C 0.28125 -0.320312 0.304688 -0.328125 0.328125 -0.328125 C 0.347656 -0.335938 0.359375 -0.347656 0.359375 -0.359375 C 0.367188 -0.367188 0.375 -0.378906 0.375 -0.390625 C 0.375 -0.410156 0.363281 -0.425781 0.34375 -0.4375 C 0.332031 -0.457031 0.3125 -0.46875 0.28125 -0.46875 C 0.238281 -0.46875 0.207031 -0.457031 0.1875 -0.4375 C 0.164062 -0.425781 0.144531 -0.410156 0.125 -0.390625 L 0.109375 -0.390625 L 0.078125 -0.4375 C 0.0976562 -0.46875 0.125 -0.488281 0.15625 -0.5 C 0.1875 -0.519531 0.226562 -0.53125 0.28125 -0.53125 C 0.34375 -0.53125 0.382812 -0.515625 0.40625 -0.484375 C 0.4375 -0.460938 0.453125 -0.425781 0.453125 -0.375 L 0.453125 -0.109375 C 0.453125 -0.078125 0.460938 -0.0625 0.484375 -0.0625 C 0.492188 -0.0625 0.503906 -0.0625 0.515625 -0.0625 L 0.53125 -0.015625 C 0.519531 -0.00390625 0.507812 0 0.5 0 C 0.488281 0 0.476562 0 0.46875 0 C 0.4375 0 0.414062 -0.00390625 0.40625 -0.015625 C 0.394531 -0.0234375 0.382812 -0.046875 0.375 -0.078125 C 0.363281 -0.046875 0.34375 -0.0195312 0.3125 0 C 0.289062 0.0078125 0.257812 0.015625 0.21875 0.015625 Z M 0.234375 -0.046875 C 0.265625 -0.046875 0.289062 -0.0507812 0.3125 -0.0625 C 0.332031 -0.0820312 0.347656 -0.101562 0.359375 -0.125 C 0.367188 -0.15625 0.375 -0.1875 0.375 -0.21875 L 0.375 -0.296875 C 0.363281 -0.285156 0.347656 -0.273438 0.328125 -0.265625 C 0.316406 -0.265625 0.296875 -0.257812 0.265625 -0.25 C 0.234375 -0.25 0.207031 -0.242188 0.1875 -0.234375 C 0.164062 -0.222656 0.148438 -0.210938 0.140625 -0.203125 C 0.140625 -0.191406 0.140625 -0.175781 0.140625 -0.15625 C 0.140625 -0.125 0.144531 -0.0976562 0.15625 -0.078125 C 0.175781 -0.0546875 0.203125 -0.046875 0.234375 -0.046875 Z M 0.234375 -0.046875 "/></g><g transform="translate(24.54576, 37.425951)"><path style="stroke:none" d="M 0.21875 0.015625 C 0.175781 0.015625 0.144531 0.00390625 0.125 -0.015625 C 0.101562 -0.046875 0.09375 -0.0820312 0.09375 -0.125 L 0.09375 -0.734375 L 0.171875 -0.734375 L 0.171875 -0.125 C 0.171875 -0.101562 0.175781 -0.0859375 0.1875 -0.078125 C 0.195312 -0.0664062 0.207031 -0.0625 0.21875 -0.0625 C 0.226562 -0.0625 0.242188 -0.0625 0.265625 -0.0625 L 0.28125 0 C 0.269531 0 0.257812 0 0.25 0 C 0.238281 0.0078125 0.226562 0.015625 0.21875 0.015625 Z M 0.21875 0.015625 "/></g><g transform="translate(24.83275, 37.425951)"><path style="stroke:none" d="M 0.28125 0.234375 C 0.195312 0.234375 0.132812 0.21875 0.09375 0.1875 C 0.0507812 0.15625 0.03125 0.117188 0.03125 0.078125 C 0.03125 0.046875 0.0390625 0.0195312 0.0625 0 C 0.0820312 -0.0195312 0.109375 -0.03125 0.140625 -0.03125 L 0.140625 -0.046875 C 0.117188 -0.0546875 0.101562 -0.0664062 0.09375 -0.078125 C 0.09375 -0.0859375 0.09375 -0.101562 0.09375 -0.125 C 0.09375 -0.144531 0.0976562 -0.160156 0.109375 -0.171875 C 0.117188 -0.191406 0.140625 -0.203125 0.171875 -0.203125 L 0.171875 -0.21875 C 0.109375 -0.25 0.078125 -0.300781 0.078125 -0.375 C 0.078125 -0.394531 0.0820312 -0.414062 0.09375 -0.4375 C 0.113281 -0.46875 0.140625 -0.488281 0.171875 -0.5 C 0.203125 -0.519531 0.238281 -0.53125 0.28125 -0.53125 C 0.320312 -0.53125 0.351562 -0.519531 0.375 -0.5 C 0.382812 -0.507812 0.390625 -0.519531 0.390625 -0.53125 C 0.398438 -0.550781 0.40625 -0.570312 0.40625 -0.59375 L 0.421875 -0.59375 L 0.484375 -0.578125 C 0.484375 -0.554688 0.472656 -0.535156 0.453125 -0.515625 C 0.441406 -0.492188 0.425781 -0.476562 0.40625 -0.46875 L 0.40625 -0.453125 C 0.425781 -0.441406 0.4375 -0.425781 0.4375 -0.40625 C 0.445312 -0.382812 0.453125 -0.367188 0.453125 -0.359375 C 0.453125 -0.328125 0.441406 -0.296875 0.421875 -0.265625 C 0.410156 -0.242188 0.390625 -0.222656 0.359375 -0.203125 C 0.335938 -0.191406 0.3125 -0.1875 0.28125 -0.1875 C 0.269531 -0.1875 0.257812 -0.1875 0.25 -0.1875 C 0.238281 -0.1875 0.226562 -0.1875 0.21875 -0.1875 C 0.207031 -0.1875 0.195312 -0.179688 0.1875 -0.171875 C 0.175781 -0.160156 0.171875 -0.148438 0.171875 -0.140625 C 0.171875 -0.117188 0.175781 -0.101562 0.1875 -0.09375 C 0.195312 -0.09375 0.210938 -0.09375 0.234375 -0.09375 L 0.359375 -0.078125 C 0.410156 -0.078125 0.445312 -0.0664062 0.46875 -0.046875 C 0.5 -0.0234375 0.515625 0.0078125 0.515625 0.0625 C 0.515625 0.09375 0.503906 0.117188 0.484375 0.140625 C 0.460938 0.171875 0.4375 0.191406 0.40625 0.203125 C 0.375 0.222656 0.332031 0.234375 0.28125 0.234375 Z M 0.28125 -0.25 C 0.3125 -0.25 0.332031 -0.257812 0.34375 -0.28125 C 0.363281 -0.300781 0.375 -0.328125 0.375 -0.359375 C 0.375 -0.390625 0.363281 -0.414062 0.34375 -0.4375 C 0.332031 -0.457031 0.3125 -0.46875 0.28125 -0.46875 C 0.238281 -0.46875 0.207031 -0.457031 0.1875 -0.4375 C 0.164062 -0.414062 0.15625 -0.390625 0.15625 -0.359375 C 0.15625 -0.328125 0.164062 -0.300781 0.1875 -0.28125 C 0.207031 -0.257812 0.238281 -0.25 0.28125 -0.25 Z M 0.28125 0.15625 C 0.320312 0.15625 0.347656 0.148438 0.359375 0.140625 C 0.378906 0.140625 0.394531 0.128906 0.40625 0.109375 C 0.425781 0.0976562 0.4375 0.0820312 0.4375 0.0625 C 0.4375 0.0507812 0.429688 0.0390625 0.421875 0.03125 C 0.410156 0.0195312 0.398438 0.0078125 0.390625 0 C 0.378906 0 0.367188 0 0.359375 0 L 0.234375 -0.015625 L 0.21875 -0.015625 C 0.144531 -0.015625 0.109375 0.0078125 0.109375 0.0625 C 0.109375 0.125 0.164062 0.15625 0.28125 0.15625 Z M 0.28125 0.15625 "/></g></g><g style="fill:#ffffff;fill-opacity:1;"><g transform="translate(25.365118, 37.425951)"><path style="stroke:none" d="M 0.3125 0.015625 C 0.257812 0.015625 0.210938 0.00390625 0.171875 -0.015625 C 0.140625 -0.0351562 0.113281 -0.0664062 0.09375 -0.109375 C 0.0703125 -0.160156 0.0625 -0.210938 0.0625 -0.265625 C 0.0625 -0.328125 0.0703125 -0.375 0.09375 -0.40625 C 0.113281 -0.445312 0.140625 -0.476562 0.171875 -0.5 C 0.210938 -0.519531 0.257812 -0.53125 0.3125 -0.53125 C 0.351562 -0.53125 0.390625 -0.519531 0.421875 -0.5 C 0.460938 -0.476562 0.492188 -0.445312 0.515625 -0.40625 C 0.535156 -0.375 0.546875 -0.328125 0.546875 -0.265625 C 0.546875 -0.210938 0.535156 -0.160156 0.515625 -0.109375 C 0.492188 -0.0664062 0.460938 -0.0351562 0.421875 -0.015625 C 0.390625 0.00390625 0.351562 0.015625 0.3125 0.015625 Z M 0.3125 -0.0625 C 0.351562 -0.0625 0.382812 -0.078125 0.40625 -0.109375 C 0.4375 -0.140625 0.453125 -0.191406 0.453125 -0.265625 C 0.453125 -0.335938 0.4375 -0.390625 0.40625 -0.421875 C 0.382812 -0.453125 0.351562 -0.46875 0.3125 -0.46875 C 0.257812 -0.46875 0.21875 -0.453125 0.1875 -0.421875 C 0.15625 -0.390625 0.140625 -0.335938 0.140625 -0.265625 C 0.140625 -0.191406 0.15625 -0.140625 0.1875 -0.109375 C 0.21875 -0.078125 0.257812 -0.0625 0.3125 -0.0625 Z M 0.3125 -0.0625 "/></g><g transform="translate(25.970668, 37.425951)"><path style="stroke:none" d="M 0.09375 0 L 0.09375 -0.515625 L 0.171875 -0.515625 L 0.171875 -0.4375 L 0.1875 -0.4375 C 0.207031 -0.5 0.253906 -0.53125 0.328125 -0.53125 C 0.359375 -0.53125 0.378906 -0.523438 0.390625 -0.515625 L 0.375 -0.4375 C 0.351562 -0.445312 0.332031 -0.453125 0.3125 -0.453125 C 0.269531 -0.453125 0.234375 -0.4375 0.203125 -0.40625 C 0.179688 -0.382812 0.171875 -0.335938 0.171875 -0.265625 L 0.171875 0 Z M 0.09375 0 "/></g><g transform="translate(26.378195, 37.425951)"><path style="stroke:none" d="M 0.140625 -0.625 C 0.117188 -0.625 0.101562 -0.628906 0.09375 -0.640625 C 0.0820312 -0.648438 0.078125 -0.664062 0.078125 -0.6875 C 0.078125 -0.695312 0.0820312 -0.707031 0.09375 -0.71875 C 0.101562 -0.726562 0.117188 -0.734375 0.140625 -0.734375 C 0.148438 -0.734375 0.160156 -0.726562 0.171875 -0.71875 C 0.179688 -0.707031 0.1875 -0.695312 0.1875 -0.6875 C 0.1875 -0.664062 0.179688 -0.648438 0.171875 -0.640625 C 0.160156 -0.628906 0.148438 -0.625 0.140625 -0.625 Z M 0.09375 0 L 0.09375 -0.515625 L 0.171875 -0.515625 L 0.171875 0 Z M 0.09375 0 "/></g><g transform="translate(26.639834, 37.425951)"><path style="stroke:none" d="M 0.359375 -0.078125 L 0.375 -0.03125 C 0.375 -0.0195312 0.363281 -0.0078125 0.34375 0 C 0.320312 0.0078125 0.296875 0.015625 0.265625 0.015625 C 0.171875 0.015625 0.125 -0.0351562 0.125 -0.140625 L 0.125 -0.453125 L 0.03125 -0.453125 L 0.03125 -0.53125 L 0.125 -0.53125 L 0.125 -0.640625 L 0.203125 -0.65625 L 0.203125 -0.53125 L 0.375 -0.53125 L 0.375 -0.453125 L 0.203125 -0.453125 L 0.203125 -0.15625 C 0.203125 -0.09375 0.226562 -0.0625 0.28125 -0.0625 C 0.3125 -0.0625 0.335938 -0.0664062 0.359375 -0.078125 Z M 0.359375 -0.078125 "/></g><g transform="translate(27.041621, 37.425951)"><path style="stroke:none" d="M 0.09375 0 L 0.09375 -0.734375 L 0.171875 -0.734375 L 0.171875 -0.453125 L 0.1875 -0.4375 C 0.21875 -0.5 0.269531 -0.53125 0.34375 -0.53125 C 0.40625 -0.53125 0.445312 -0.515625 0.46875 -0.484375 C 0.5 -0.453125 0.515625 -0.40625 0.515625 -0.34375 L 0.515625 0 L 0.4375 0 L 0.4375 -0.34375 C 0.4375 -0.363281 0.429688 -0.382812 0.421875 -0.40625 C 0.421875 -0.425781 0.410156 -0.441406 0.390625 -0.453125 C 0.378906 -0.460938 0.359375 -0.46875 0.328125 -0.46875 C 0.285156 -0.46875 0.25 -0.453125 0.21875 -0.421875 C 0.1875 -0.390625 0.171875 -0.34375 0.171875 -0.28125 L 0.171875 0 Z M 0.09375 0 "/></g><g transform="translate(27.649085, 37.425951)"><path style="stroke:none" d="M 0.140625 -0.625 C 0.117188 -0.625 0.101562 -0.628906 0.09375 -0.640625 C 0.0820312 -0.648438 0.078125 -0.664062 0.078125 -0.6875 C 0.078125 -0.695312 0.0820312 -0.707031 0.09375 -0.71875 C 0.101562 -0.726562 0.117188 -0.734375 0.140625 -0.734375 C 0.148438 -0.734375 0.160156 -0.726562 0.171875 -0.71875 C 0.179688 -0.707031 0.1875 -0.695312 0.1875 -0.6875 C 0.1875 -0.664062 0.179688 -0.648438 0.171875 -0.640625 C 0.160156 -0.628906 0.148438 -0.625 0.140625 -0.625 Z M 0.09375 0 L 0.09375 -0.515625 L 0.171875 -0.515625 L 0.171875 0 Z M 0.09375 0 "/></g><g transform="translate(27.910724, 37.425951)"><path style="stroke:none" d="M 0.09375 0 L 0.09375 -0.515625 L 0.171875 -0.515625 L 0.171875 -0.4375 L 0.1875 -0.4375 C 0.195312 -0.46875 0.21875 -0.488281 0.25 -0.5 C 0.28125 -0.519531 0.3125 -0.53125 0.34375 -0.53125 C 0.40625 -0.53125 0.445312 -0.515625 0.46875 -0.484375 C 0.5 -0.453125 0.515625 -0.40625 0.515625 -0.34375 L 0.515625 0 L 0.4375 0 L 0.4375 -0.34375 C 0.4375 -0.363281 0.429688 -0.382812 0.421875 -0.40625 C 0.421875 -0.425781 0.410156 -0.441406 0.390625 -0.453125 C 0.378906 -0.460938 0.359375 -0.46875 0.328125 -0.46875 C 0.285156 -0.46875 0.25 -0.453125 0.21875 -0.421875 C 0.1875 -0.390625 0.171875 -0.34375 0.171875 -0.28125 L 0.171875 0 Z M 0.09375 0 "/></g><g transform="translate(28.518188, 37.425951)"><path style="stroke:none" d="M 0.09375 0 L 0.09375 -0.515625 L 0.171875 -0.515625 L 0.171875 -0.4375 L 0.1875 -0.4375 C 0.195312 -0.46875 0.21875 -0.488281 0.25 -0.5 C 0.28125 -0.519531 0.3125 -0.53125 0.34375 -0.53125 C 0.40625 -0.53125 0.445312 -0.515625 0.46875 -0.484375 C 0.5 -0.453125 0.515625 -0.40625 0.515625 -0.34375 L 0.515625 0 L 0.4375 0 L 0.4375 -0.34375 C 0.4375 -0.363281 0.429688 -0.382812 0.421875 -0.40625 C 0.421875 -0.425781 0.410156 -0.441406 0.390625 -0.453125 C 0.378906 -0.460938 0.359375 -0.46875 0.328125 -0.46875 C 0.285156 -0.46875 0.25 -0.453125 0.21875 -0.421875 C 0.1875 -0.390625 0.171875 -0.34375 0.171875 -0.28125 L 0.171875 0 Z M 0.09375 0 "/></g></g></g></svg>